<svg width="90" height="30" viewBox="0 0 90 30" fill="none" xmlns="http://www.w3.org/2000/svg">
<path fill-rule="evenodd" clip-rule="evenodd" d="M83.8854 5.53914C83.888 6.6083 83.5082 8.27745 82.318 9.45744C81.9947 9.78001 81.6354 10.0657 81.2472 10.3091C80.6889 10.6683 80.2829 10.9183 80.5113 11.5166C80.7346 12.1024 81.4248 11.9191 82.0804 11.7716C82.291 11.7208 86.3993 10.7399 86.4518 10.7374C86.9814 10.6378 87.5296 10.7428 87.9829 11.0306C88.4361 11.3184 88.7595 11.7669 88.8862 12.2832L89.222 13.6541C89.3492 14.1706 89.2704 14.7156 89.0017 15.1766C88.733 15.6376 88.2951 15.9794 87.7781 16.1315C87.7316 16.1515 83.2417 17.2299 83.2341 17.2315C82.3815 17.4482 81.8824 17.8682 81.8858 18.6815C81.8858 19.044 82.0998 19.4382 82.3629 19.7648C82.3629 19.7648 87.2587 25.729 87.2833 25.7756C87.6032 26.2037 87.7442 26.7363 87.6773 27.2637C87.6104 27.7912 87.3407 28.2733 86.9238 28.6106L85.8157 29.5023C85.3988 29.8385 84.8664 30.0035 84.3292 29.9629C83.7921 29.9224 83.2914 29.6795 82.9313 29.2848C82.8915 29.2514 79.8507 25.579 79.5284 25.1881C79.2061 24.7998 78.8009 24.2065 78.2376 24.209C77.6777 24.209 77.275 24.8056 76.9536 25.1956C76.633 25.5873 73.609 29.2748 73.5718 29.3073C73.2137 29.704 72.7142 29.9496 72.1771 29.9931C71.6399 30.0365 71.1065 29.8745 70.6874 29.5406C70.6781 29.5323 69.5794 28.6548 69.576 28.6539C69.1577 28.3184 68.8857 27.8378 68.8159 27.3109C68.746 26.784 68.8836 26.2507 69.2004 25.8206C69.2241 25.774 74.092 19.7857 74.092 19.7857C74.3526 19.4582 74.5649 19.0624 74.564 18.6999C74.5606 17.8865 74.0624 17.469 73.2073 17.2565C73.1996 17.2565 68.7047 16.1982 68.6591 16.179C68.1413 16.0293 67.7015 15.6896 67.4304 15.2299C67.1592 14.7702 67.0774 14.2256 67.2016 13.7082C67.2033 13.6957 67.529 12.3391 67.5307 12.3349C67.655 11.8182 67.9761 11.3683 68.4276 11.0782C68.8791 10.7882 69.4265 10.6802 69.9566 10.7766C70.0074 10.7766 74.1216 11.7416 74.3331 11.7908C74.9886 11.9341 75.6823 12.1157 75.9013 11.5283C76.1255 10.9283 75.7195 10.6799 75.1595 10.3241C74.7696 10.0828 74.4086 9.79877 74.0836 9.47744C72.8875 8.30495 72.4993 6.6358 72.4967 5.56664C72.49 2.5 75.0732 0.00835437 78.1776 2.09336e-05C81.2819 -0.00831251 83.8778 2.4725 83.8846 5.53914H83.8854ZM8.44381 24.0831C8.19851 24.0831 7.25792 23.9565 6.74025 23.024L0.701638 12.4532C0.0824668 11.3333 0.8116 10.3833 1.45784 10.1474L3.06413 9.4366C3.92776 9.05494 4.96732 9.45827 5.35642 10.3508L9.14419 17.8749H9.20086L12.9937 10.3508C13.3828 9.45911 14.4207 9.05494 15.286 9.4366L16.8923 10.1474C17.5377 10.3833 18.2668 11.3333 17.6476 12.4532L11.609 23.024C11.4411 23.3299 11.1959 23.588 10.8972 23.7734C10.5985 23.9588 10.2564 24.0652 9.90378 24.0823H8.44466L8.44381 24.0831ZM34.9768 24.0831C34.6243 24.0659 34.2822 23.9593 33.9836 23.7738C33.6851 23.5882 33.4401 23.33 33.2724 23.024L27.233 12.4532C26.6129 11.3333 27.3438 10.3833 27.99 10.1474L29.5954 9.4366C30.4599 9.05494 31.4969 9.45827 31.8877 10.3508L35.6772 17.8749H35.733L39.525 10.3508C39.915 9.45911 40.9528 9.05494 41.8173 9.4366L43.4236 10.1474C44.069 10.3833 44.799 11.3333 44.1807 12.4532L38.1412 23.024C37.9734 23.3301 37.7283 23.5883 37.4296 23.7737C37.1309 23.9591 36.7886 24.0654 36.4359 24.0823H34.9777L34.9768 24.0831ZM52.6985 9.34327C56.8635 9.34327 60.236 12.6766 60.236 16.7865C60.236 20.899 56.8635 24.2331 52.6993 24.2331C48.5377 24.2331 45.1627 20.899 45.1627 16.7865C45.1627 12.6774 48.5377 9.34327 52.6993 9.34327H52.6985ZM25.3907 5.10581C25.3907 6.71746 24.0677 8.02245 22.4369 8.02245C22.0485 8.02223 21.6639 7.9466 21.3051 7.79988C20.9464 7.65315 20.6205 7.43821 20.3461 7.16735C20.0717 6.89648 19.8542 6.57499 19.706 6.22126C19.5578 5.86753 19.4818 5.48849 19.4823 5.10581C19.4823 3.49416 20.8052 2.18917 22.4369 2.18917C22.8253 2.18961 23.2097 2.26539 23.5683 2.41221C23.9269 2.55902 24.2527 2.77398 24.5269 3.04481C24.8012 3.31565 25.0187 3.63705 25.1669 3.99068C25.3151 4.34431 25.3911 4.72323 25.3907 5.10581ZM52.6993 19.7265C53.4895 19.7252 54.2468 19.4147 54.8047 18.8634C55.3626 18.3121 55.6754 17.565 55.6742 16.7865C55.6749 16.0084 55.3619 15.2619 54.8041 14.7111C54.2462 14.1602 53.4891 13.8502 52.6993 13.8491C52.3082 13.8495 51.921 13.9258 51.5598 14.0737C51.1987 14.2215 50.8706 14.438 50.5944 14.7108C50.3181 14.9836 50.0991 15.3073 49.9498 15.6634C49.8006 16.0196 49.724 16.4012 49.7244 16.7865C49.7238 17.172 49.8002 17.5539 49.9493 17.9103C50.0985 18.2667 50.3175 18.5906 50.5937 18.8636C50.87 19.1367 51.1981 19.3534 51.5594 19.5014C51.9207 19.6495 52.308 19.726 52.6993 19.7265ZM19.8663 11.2966C19.8663 10.3024 20.6809 9.4966 21.6875 9.4966H23.2117C24.2183 9.4966 25.0337 10.3024 25.0337 11.2966V22.284C25.0337 23.2781 24.2183 24.0831 23.2117 24.0831H21.6875C21.4479 24.0829 21.2107 24.0362 20.9895 23.9456C20.7682 23.855 20.5673 23.7223 20.3981 23.5551C20.229 23.3879 20.095 23.1895 20.0037 22.9713C19.9125 22.753 19.8658 22.5192 19.8663 22.2832V11.2974V11.2966Z" fill="#888888"/>
</svg>
