<svg width="131" height="23" viewBox="0 0 131 23" fill="none" xmlns="http://www.w3.org/2000/svg">
<path d="M130.209 10.439C130.209 11.2106 130.209 11.9823 130.013 12.5664C129.44 12.3735 128.863 12.3735 128.105 12.3735C127.532 12.3735 126.955 12.5664 126.382 12.5664C126.382 22.2283 126.382 22.2283 126.382 22.2283C123.897 22.2283 123.897 22.2283 123.897 22.2283C123.897 11.0177 123.897 11.0177 123.897 11.0177C124.851 10.6319 126.759 10.246 128.105 10.246C128.868 10.246 129.631 10.246 130.209 10.439ZM113.572 15.2672C119.307 15.2672 119.307 15.2672 119.307 15.2672C119.307 13.5256 118.157 12.3681 116.434 12.3681C114.722 12.3681 113.768 13.3381 113.572 15.2672ZM121.602 17.3947C113.768 17.3947 113.768 17.3947 113.768 17.3947C113.954 19.5221 115.104 20.4867 117.399 20.4867C118.734 20.4867 120.07 20.1009 121.411 19.5221C121.215 20.2938 121.029 21.0708 121.029 21.8425C119.879 22.4212 118.538 22.6142 117.399 22.6142C113.19 22.6142 111.086 20.2938 111.086 16.4301C111.086 12.9522 112.804 10.246 116.63 10.246C120.261 10.246 121.792 12.5664 121.792 15.4655C121.792 16.2372 121.602 16.8159 121.602 17.3947ZM106.693 19.7151C106.693 12.561 106.693 12.561 106.693 12.561C106.12 12.561 105.357 12.3681 104.785 12.3681C102.299 12.3681 101.154 13.9115 101.154 16.6177C101.154 18.938 102.108 20.4814 104.212 20.4814C105.161 20.4867 105.929 20.1009 106.693 19.7151ZM109.173 6.37698C109.173 22.2283 109.173 22.2283 109.173 22.2283C106.883 22.2283 106.883 22.2283 106.883 22.2283C106.687 20.8779 106.687 20.8779 106.687 20.8779C106.115 21.8425 105.156 22.6195 103.444 22.6195C100.571 22.6195 98.663 20.2992 98.663 16.6284C98.663 12.5718 100.767 10.2514 104.779 10.2514C105.548 10.2514 106.115 10.4443 106.687 10.4443C106.687 6.77353 106.687 6.77353 106.687 6.77353C107.456 6.37698 108.415 6.37698 109.173 6.37698ZM96.5589 14.6885C96.5589 22.2283 96.5589 22.2283 96.5589 22.2283C94.0731 22.2283 94.0731 22.2283 94.0731 22.2283C94.0731 15.0797 94.0731 15.0797 94.0731 15.0797C94.0731 13.3381 93.5007 12.3735 91.015 12.3735C90.4426 12.3735 89.8649 12.5664 89.0964 12.5664C89.0964 22.2283 89.0964 22.2283 89.0964 22.2283C86.6106 22.2283 86.6106 22.2283 86.6106 22.2283C86.6106 11.0177 86.6106 11.0177 86.6106 11.0177C88.1424 10.6319 89.8649 10.246 91.2005 10.246C95.2233 10.246 96.5589 11.9823 96.5589 14.6885ZM81.4537 19.7151C81.4537 12.561 81.4537 12.561 81.4537 12.561C80.8813 12.561 80.3036 12.3681 79.7365 12.3681C77.0599 12.3681 75.9098 14.1097 75.9098 16.6177C75.9098 18.938 76.8638 20.4814 78.968 20.4814C79.9273 20.4867 80.8813 20.2938 81.4537 19.7151ZM83.9394 11.0177C83.9394 22.2283 83.9394 22.2283 83.9394 22.2283C81.6498 22.2283 81.6498 22.2283 81.6498 22.2283C81.4537 20.8779 81.4537 20.8779 81.4537 20.8779C80.8813 21.8425 79.922 22.6195 78.3955 22.6195C75.3374 22.6195 73.4294 20.2992 73.4294 16.6284C73.4294 12.5718 75.5335 10.2514 79.7418 10.2514C81.2682 10.246 82.6038 10.439 83.9394 11.0177ZM70.5567 20.4867C71.3253 20.4867 72.0885 20.2938 72.6609 20.1009C72.4754 20.6796 72.4754 21.4513 72.2793 22.2283C71.7069 22.4212 70.9436 22.6142 70.1751 22.6142C67.8802 22.6142 66.3485 21.4567 66.3485 18.7505C66.3485 6.76817 66.3485 6.76817 66.3485 6.76817C67.117 6.57526 67.8802 6.38234 68.6434 6.38234C68.6434 10.6372 68.6434 10.6372 68.6434 10.6372C72.6556 10.6372 72.6556 10.6372 72.6556 10.6372C72.6556 11.4089 72.4701 12.1859 72.4701 12.7647C68.6434 12.7647 68.6434 12.7647 68.6434 12.7647C68.6434 18.37 68.6434 18.37 68.6434 18.37C68.6487 19.908 69.4172 20.4867 70.5567 20.4867ZM63.8681 14.6885C63.8681 22.2283 63.8681 22.2283 63.8681 22.2283C61.3823 22.2283 61.3823 22.2283 61.3823 22.2283C61.3823 15.0797 61.3823 15.0797 61.3823 15.0797C61.3823 13.3381 60.8099 12.3735 58.3242 12.3735C57.7518 12.3735 56.9886 12.5664 56.2201 12.5664C56.2201 22.2283 56.2201 22.2283 56.2201 22.2283C53.7343 22.2283 53.7343 22.2283 53.7343 22.2283C53.7343 11.0177 53.7343 11.0177 53.7343 11.0177C55.4569 10.6319 57.1741 10.246 58.3242 10.246C62.5325 10.246 63.8681 11.9823 63.8681 14.6885ZM48.5774 19.7151C48.5774 12.561 48.5774 12.561 48.5774 12.561C48.1958 12.561 47.6234 12.3681 46.8549 12.3681C44.3691 12.3681 43.0335 14.1097 43.0335 16.6177C43.0335 18.938 43.9875 20.4814 46.2825 20.4814C47.2365 20.4867 47.9997 20.2938 48.5774 19.7151ZM51.0631 11.0177C51.0631 22.2283 51.0631 22.2283 51.0631 22.2283C48.7682 22.2283 48.7682 22.2283 48.7682 22.2283C48.7682 20.8779 48.7682 20.8779 48.7682 20.8779C48.005 21.8425 47.0457 22.6195 45.5192 22.6195C42.6519 22.6195 40.5478 20.2992 40.5478 16.6284C40.5478 12.5718 42.6519 10.2514 46.8549 10.2514C48.5774 10.246 49.913 10.439 51.0631 11.0177ZM28.6915 21.8425C28.6915 20.8779 28.8823 20.2938 29.0731 19.5221C30.4088 20.1009 31.9405 20.2938 33.2761 20.2938C35.3802 20.2938 36.525 19.7151 36.525 18.3593C36.525 17.0089 35.571 16.4247 33.4669 15.4602C32.3221 15.0743 32.3221 15.0743 32.3221 15.0743C30.218 14.1097 28.8823 12.9469 28.8823 10.4336C28.8823 7.92032 30.6049 6.1787 34.2354 6.1787C35.7671 6.1787 37.1027 6.37162 38.2476 6.75746C38.2476 7.72204 38.0568 8.49907 37.866 9.07782C36.7211 8.69199 35.1894 8.49907 34.2354 8.49907C32.3221 8.49907 31.3681 9.27074 31.3681 10.4336C31.3681 11.5911 32.1313 12.3681 33.8538 12.9469C34.9986 13.5256 34.9986 13.5256 34.9986 13.5256C37.8659 14.6831 39.0108 16.0389 39.0108 18.1664C39.0108 20.8726 37.0974 22.6142 33.2761 22.6142C31.3681 22.6142 29.8417 22.4212 28.6915 21.8425ZM17.413 10.6319C17.2222 9.66729 17.0314 8.89026 16.6498 8.11859C12.8284 1.54334 12.8284 1.54334 12.8284 1.54334C12.6376 1.1575 12.4468 0.578751 12.256 0C12.256 0.385834 12.256 0.385834 12.256 0.385834C11.302 1.93453 11.302 3.8637 12.256 5.60531C15.1234 10.8248 15.1234 10.8248 15.1234 10.8248C16.0774 12.3735 16.0774 14.4956 15.1234 16.0443C14.9326 16.4301 14.9326 16.4301 14.9326 16.4301C14.9326 15.8514 14.7418 15.2726 14.3602 14.6885C11.6836 9.85485 11.6836 9.85485 11.6836 9.85485C9.9611 6.95573 9.9611 6.95573 9.9611 6.95573C9.5795 6.37698 9.3887 5.79823 9.3887 5.21412C9.1979 5.59995 9.1979 5.59995 9.1979 5.59995C8.24388 7.14865 8.24388 9.07782 9.1979 10.8194C12.256 16.0389 12.256 16.0389 12.256 16.0389C13.0192 17.7805 13.0192 19.7097 12.256 21.2584C12.0652 21.6442 12.0652 21.6442 12.0652 21.6442C11.8744 21.0655 11.6836 20.4867 11.4928 20.0955C7.67148 13.5256 7.67148 13.5256 7.67148 13.5256C7.09907 12.561 6.90827 11.5911 6.90827 10.6265C2.88552 11.5965 0.208984 13.9168 0.208984 16.4301C0.208984 20.1009 5.56205 23 12.2507 23C18.7486 23 24.1017 20.1009 24.1017 16.4301C24.107 13.9168 21.4304 11.5965 17.413 10.6319Z" fill="#888888"/>
</svg>
