<svg width="91" height="29" viewBox="0 0 91 29" fill="none" xmlns="http://www.w3.org/2000/svg">
<path d="M18.7171 23.4175H22.9267V11.165H18.7171V23.4175ZM24.3783 2.8275H21.5477V5.655H24.3783V2.8275ZM8.48318 4.205H4.41866V7.7575H8.19286C10.588 7.7575 11.967 8.9175 11.967 11.0925C11.967 13.2675 10.588 14.5 8.19286 14.5H4.41866V7.83H0.208984V23.4175H4.41866V18.0525H8.4106C13.2735 18.0525 16.1041 15.4425 16.1041 10.9475C16.1041 6.7425 13.3461 4.205 8.48318 4.205ZM27.209 0H18.7171V8.4825H27.209V0ZM25.83 7.0325H20.1687V1.3775H25.83V7.0325ZM50.5074 4.205H46.6606V7.7575H50.2896C52.6848 7.7575 54.0638 8.9175 54.0638 11.0925C54.0638 13.2675 52.6848 14.5 50.2896 14.5H46.6606V7.83H42.4509V23.4175H46.6606V18.0525H50.5074C55.3703 18.0525 58.2009 15.4425 58.2009 10.9475C58.2009 6.7425 55.3703 4.205 50.5074 4.205ZM85.8541 8.7L82.2251 17.835L78.5961 8.7H74.2412L80.0477 23.4175L77.7977 29H82.2251L90.209 8.7H85.8541ZM66.9832 8.6275C64.4429 8.6275 62.4832 9.2075 60.3058 10.295L61.6122 13.195C63.1364 12.325 64.6606 11.89 66.0396 11.89C68.0719 11.89 69.088 12.76 69.088 14.355V14.645H65.0235C61.3945 14.645 59.4348 16.3125 59.4348 19.0675C59.4348 21.75 61.3219 23.635 64.5154 23.635C66.5477 23.635 67.9993 22.91 69.1606 21.6775V23.2725H73.2977V13.7025C73.1525 10.585 70.9025 8.6275 66.9832 8.6275ZM69.4509 18.4875C69.0154 19.72 67.7816 20.735 66.0396 20.735C64.588 20.735 63.7171 20.01 63.7171 18.85C63.7171 17.69 64.5154 17.1825 66.1122 17.1825H69.4509V18.4875ZM33.6687 20.2275C31.6364 20.2275 30.1848 18.6325 30.1848 16.24C30.1848 13.92 31.6364 12.325 33.6687 12.325C35.1203 12.325 36.209 12.905 37.0074 13.92L39.838 11.89C38.5316 9.9325 36.2816 8.7725 33.4509 8.7725C29.0235 8.7 25.9751 11.745 25.9751 16.24C25.9751 20.735 29.0235 23.7075 33.4509 23.7075C36.4993 23.7075 38.7493 22.475 39.9832 20.445L37.08 18.4875C36.3541 19.6475 35.1929 20.2275 33.6687 20.2275Z" fill="#888888"/>
</svg>
